<?xml version="1.0" standalone="no"?>
<!DOCTYPE svg PUBLIC "-//W3C//DTD SVG 20010904//EN"
 "http://www.w3.org/TR/2001/REC-SVG-20010904/DTD/svg10.dtd">
<svg version="1.0" xmlns="http://www.w3.org/2000/svg"
 width="300.000000pt" height="300.000000pt" viewBox="0 0 300.000000 300.000000"
 preserveAspectRatio="xMidYMid meet">
<metadata>
Created by potrace 1.10, written by Peter Selinger 2001-2011
</metadata>
<g transform="translate(0.000000,300.000000) scale(0.100000,-0.100000)"
fill="#000000" stroke="none">
<path d="M36 2974 c53 -35 89 -71 129 -125 19 -25 85 -90 147 -144 140 -121
213 -198 283 -296 41 -58 73 -90 136 -134 81 -57 123 -96 244 -227 37 -40 86
-79 127 -102 76 -42 117 -85 201 -209 46 -67 72 -95 121 -126 73 -48 99 -74
154 -157 22 -33 63 -85 90 -115 27 -30 61 -72 76 -94 33 -49 121 -141 169
-178 20 -15 62 -59 93 -97 32 -38 86 -92 121 -121 35 -28 84 -78 110 -110 25
-33 92 -96 147 -142 151 -122 194 -165 248 -244 26 -40 76 -103 111 -139 63
-69 244 -210 255 -200 3 3 3 8 1 9 -2 2 -47 36 -101 76 -109 81 -170 144 -246
255 -29 42 -78 101 -109 129 -31 29 -64 59 -73 67 -8 8 -34 28 -55 45 -60 44
-631 618 -658 662 -14 21 -49 65 -79 98 -30 33 -73 87 -95 120 -46 67 -86 108
-154 153 -46 31 -109 100 -109 120 0 6 -4 12 -8 14 -5 2 -23 24 -41 51 -34 50
-109 127 -124 127 -24 0 -158 108 -202 163 -27 35 -86 92 -130 128 -44 35 -81
67 -83 72 -2 4 -9 7 -16 7 -17 0 -74 62 -134 145 -28 39 -92 108 -143 155 -50
47 -121 112 -157 145 -36 33 -82 82 -104 109 -47 60 -139 136 -163 136 -12 0
-5 -9 21 -26z"/>
<path d="M2055 2818 c-11 -6 -23 -16 -27 -22 -12 -17 -9 -84 7 -176 8 -47 15
-122 15 -168 l0 -83 -47 5 c-27 3 -117 8 -200 11 l-153 6 -26 -26 c-20 -20
-24 -32 -19 -53 14 -58 26 -60 417 -71 l36 -1 -1 -233 c-2 -207 0 -236 16
-260 32 -50 105 -48 132 3 13 25 14 65 9 261 l-5 232 128 -7 c70 -3 168 -9
216 -12 82 -6 89 -5 112 16 30 28 32 69 7 100 -17 21 -32 24 -143 32 -68 5
-170 8 -225 6 l-101 -3 -6 76 c-6 68 -41 301 -53 340 -4 14 -44 39 -62 39 -4
0 -16 -6 -27 -12z m64 -37 c15 -28 44 -208 56 -344 2 -27 9 -54 14 -61 8 -9
69 -15 212 -20 232 -7 254 -13 254 -66 0 -50 -28 -57 -163 -42 -59 7 -144 12
-188 12 -119 0 -114 12 -112 -264 1 -188 -1 -230 -13 -242 -26 -25 -55 -24
-80 3 -24 25 -24 26 -22 247 3 201 1 225 -15 239 -20 18 -103 27 -279 31 -126
3 -153 11 -153 46 0 39 26 45 170 42 76 -2 161 -5 188 -7 69 -4 82 11 83 101
0 38 -2 85 -5 104 -4 19 -8 49 -10 65 -2 17 -7 53 -11 81 -4 33 -3 60 4 73 15
26 57 28 70 2z"/>
<path d="M469 939 c-24 -24 -24 -59 1 -86 21 -23 14 -22 320 -43 209 -14 612
-13 643 1 45 20 60 81 30 118 -18 20 -26 21 -496 25 -463 5 -479 4 -498 -15z
m961 -24 c15 -9 17 -45 5 -62 -12 -16 -36 -18 -272 -19 -142 -1 -312 2 -378 7
-66 4 -155 10 -198 13 -42 3 -82 8 -87 11 -11 7 -14 48 -4 58 7 7 923 -1 934
-8z"/>
</g>
</svg>
